<?xml version="1.0" standalone="no"?>
<!DOCTYPE svg PUBLIC "-//W3C//DTD SVG 20010904//EN"
 "http://www.w3.org/TR/2001/REC-SVG-20010904/DTD/svg10.dtd">
<svg version="1.0" xmlns="http://www.w3.org/2000/svg"
 width="600.000000pt" height="600.000000pt" viewBox="0 0 600.000000 600.000000"
 preserveAspectRatio="xMidYMid meet">
<metadata>
Created by potrace 1.11, written by Peter Selinger 2001-2013
</metadata>
<g transform="translate(0.000000,600.000000) scale(0.100000,-0.100000)"
fill="#000000" stroke="none">
<path d="M3470 4980 c-267 -57 -479 -221 -586 -453 -59 -130 -82 -314 -55
-440 7 -32 11 -61 8 -63 -6 -6 -30 -11 -102 -19 -404 -46 -903 -235 -1300
-491 -153 -98 -362 -225 -540 -329 -423 -245 -656 -429 -793 -628 -74 -107
-95 -159 -95 -237 -1 -72 14 -110 60 -151 55 -49 96 -67 225 -95 30 -6 244 -6
283 1 43 7 84 14 130 21 22 3 90 22 150 42 184 60 259 45 324 -63 33 -55 46
-90 116 -305 94 -291 183 -380 377 -380 l73 0 60 -61 c74 -76 129 -102 210
-102 97 1 202 54 359 182 43 35 113 82 155 104 42 21 101 56 131 76 53 35 203
178 291 276 43 49 113 108 156 132 27 15 32 9 49 -66 9 -38 11 -97 7 -195 -9
-215 -9 -406 0 -455 22 -115 95 -219 186 -263 74 -36 207 -31 304 11 168 73
332 232 420 408 87 171 113 313 93 510 -3 30 -7 57 -10 61 -2 4 -8 28 -11 52
-4 25 -9 56 -12 70 -6 40 -5 161 2 210 17 124 87 275 184 395 161 201 343 347
871 700 74 50 137 92 140 95 3 3 52 39 110 80 58 40 107 76 110 79 3 4 30 26
60 51 167 137 286 275 341 396 40 88 43 103 43 199 -1 162 -91 277 -257 331
-101 32 -240 28 -345 -10 -165 -61 -279 -172 -395 -387 -44 -79 -100 -138
-167 -173 -51 -27 -168 -62 -230 -70 -19 -3 -35 -5 -35 -6 0 -1 -26 -3 -57 -6
-65 -5 -63 -9 -44 81 15 70 13 202 -4 277 -32 146 -101 270 -209 379 -106 106
-225 175 -382 219 -106 30 -286 35 -399 10z"/>
</g>
</svg>
